<svg width="340" height="239" viewBox="0 0 340 239" fill="none" xmlns="http://www.w3.org/2000/svg">
<path d="M278.958 55.6022H78.4817C72.657 55.6022 67.9351 60.5748 67.9351 66.7088V191.138C67.9351 197.272 72.657 202.245 78.4817 202.245H278.958C284.782 202.245 289.504 197.272 289.504 191.138V66.7088C289.504 60.5748 284.782 55.6022 278.958 55.6022Z" fill="white" stroke="#E5E7EB" stroke-width="4"/>
<path d="M257.841 66.3828H242.486C240.075 66.3828 238.121 68.4409 238.121 70.9796C238.121 73.5183 240.075 75.5764 242.486 75.5764H257.841C260.251 75.5764 262.206 73.5183 262.206 70.9796C262.206 68.4409 260.251 66.3828 257.841 66.3828Z" fill="white" stroke="#E5E7EB" stroke-width="4"/>
<path d="M225.424 66.3828H210.069C207.658 66.3828 205.704 68.4409 205.704 70.9796C205.704 73.5183 207.658 75.5764 210.069 75.5764H225.424C227.835 75.5764 229.789 73.5183 229.789 70.9796C229.789 68.4409 227.835 66.3828 225.424 66.3828Z" fill="white" stroke="#E5E7EB" stroke-width="4"/>
<path d="M197.373 70.9796C197.373 68.4409 195.419 66.3828 193.008 66.3828C190.597 66.3828 188.643 68.4409 188.643 70.9796C188.643 73.5183 190.597 75.5764 193.008 75.5764C195.419 75.5764 197.373 73.5183 197.373 70.9796Z" fill="white" stroke="#E5E7EB" stroke-width="4"/>
<path d="M95.6284 151.755H125.407V163.24H137.948V151.755H145.643V140.685H137.948V97.9043H121.529L95.6284 140.876V151.755ZM125.649 140.685H108.836V140.174L125.164 112.962H125.649V140.685ZM178.708 164.675C194.309 164.675 203.73 152.169 203.761 130.636C203.791 109.262 194.248 97.011 178.708 97.011C163.137 97.011 153.686 109.23 153.655 130.636C153.595 152.106 163.077 164.643 178.708 164.675ZM178.708 153.222C171.589 153.222 166.985 145.693 167.015 130.636C167.045 115.801 171.619 108.336 178.708 108.336C185.766 108.336 190.371 115.801 190.371 130.636C190.401 145.693 185.797 153.222 178.708 153.222ZM212.175 151.755H241.953V163.24H254.495V151.755H262.189V140.685H254.495V97.9043H238.076L212.175 140.876V151.755ZM242.195 140.685H225.383V140.174L241.711 112.962H242.195V140.685Z" fill="#E5E7EB"/>
<path d="M89.0343 70.0813C89.0343 68.0387 87.462 66.3828 85.5223 66.3828C83.5827 66.3828 82.0103 68.0387 82.0103 70.0813C82.0103 72.124 83.5827 73.7799 85.5223 73.7799C87.462 73.7799 89.0343 72.124 89.0343 70.0813Z" fill="white" stroke="#E5E7EB" stroke-width="4"/>
<path d="M70.8228 154.292C73.2844 154.292 75.2799 156.394 75.2799 158.986C75.2799 161.578 73.2844 163.68 70.8228 163.68C68.3612 163.68 66.3657 161.578 66.3657 158.986C66.3657 156.394 68.3612 154.292 70.8228 154.292Z" fill="#0E9F6E"/>
<path d="M292.946 103.616C289.96 105.431 286.144 104.354 284.42 101.211C282.697 98.0671 283.719 94.0475 286.705 92.2326C289.69 90.4177 293.506 91.4947 295.23 94.6382C296.953 97.7818 295.931 101.801 292.946 103.616Z" fill="#0E9F6E"/>
<path d="M176.333 75.8353C173.764 75.8353 171.681 73.6422 171.681 70.9369C171.681 68.2316 173.764 66.0385 176.333 66.0385C178.902 66.0385 180.984 68.2316 180.984 70.9369C180.984 73.6422 178.902 75.8353 176.333 75.8353Z" fill="#E5E7EB"/>
<path d="M120.717 59.313C124.136 59.313 126.907 56.3942 126.907 52.7937C126.907 49.1933 124.136 46.2745 120.717 46.2745C117.298 46.2745 114.526 49.1933 114.526 52.7937C114.526 56.3942 117.298 59.313 120.717 59.313Z" fill="#0E9F6E"/>
<path d="M209.216 171.146C206.389 171.146 204.098 173.559 204.098 176.536C204.098 179.513 206.389 181.927 209.216 181.927C212.043 181.927 214.335 179.513 214.335 176.536C214.335 173.559 212.043 171.146 209.216 171.146Z" fill="#0E9F6E"/>
<path d="M114.54 191.835C111.941 191.835 109.835 189.617 109.835 186.881C109.835 184.145 111.941 181.927 114.54 181.927C117.138 181.927 119.244 184.145 119.244 186.881C119.244 189.617 117.138 191.835 114.54 191.835Z" fill="#E5E7EB"/>
<path d="M161.626 168.511C163.312 169.536 163.89 171.807 162.916 173.583C161.943 175.358 159.786 175.967 158.1 174.942C156.414 173.916 155.836 171.646 156.81 169.87C157.783 168.094 159.939 167.486 161.626 168.511Z" fill="#E5E7EB"/>
<path d="M277.899 65.3462L271.486 72.0991C271.253 72.3451 271.253 72.7439 271.486 72.9898C271.72 73.2357 272.098 73.2357 272.332 72.9897L278.745 66.2367C278.978 65.9907 278.978 65.5919 278.745 65.346C278.511 65.1001 278.133 65.1002 277.899 65.3462Z" fill="#E5E7EB"/>
<path d="M277.271 70.1815L275.422 72.1289C275.189 72.3749 275.189 72.7737 275.422 73.0196C275.656 73.2655 276.034 73.2655 276.268 73.0195L278.117 71.0721C278.351 70.8261 278.351 70.4273 278.117 70.1814C277.884 69.9355 277.505 69.9355 277.271 70.1815Z" fill="#E5E7EB"/>
<path d="M80.1222 184.571L74.3841 190.614C74.1752 190.834 74.1752 191.19 74.3841 191.41L74.3843 191.41C74.5932 191.63 74.9319 191.63 75.1407 191.41L80.8788 185.368C81.0877 185.148 81.0877 184.791 80.8789 184.571L80.8786 184.571C80.6697 184.351 80.3311 184.351 80.1222 184.571Z" fill="#E5E7EB"/>
<path d="M79.5604 188.897L77.9053 190.64C77.6964 190.86 77.6964 191.216 77.9053 191.436L77.9056 191.437C78.1145 191.657 78.4531 191.657 78.662 191.437L80.3171 189.694C80.5259 189.474 80.5259 189.117 80.3171 188.897L80.3168 188.897C80.1079 188.677 79.7692 188.677 79.5604 188.897Z" fill="#E5E7EB"/>
<path d="M52.3141 67.0554L63.4066 55.374C63.8105 54.9486 63.8105 54.2589 63.4066 53.8335C63.0026 53.4082 62.3477 53.4082 61.9438 53.8335L50.8514 65.5149C50.4475 65.9403 50.4475 66.63 50.8514 67.0554C51.2553 67.4807 51.9102 67.4807 52.3141 67.0554Z" fill="#E5E7EB"/>
<path d="M53.4004 58.6917L56.5994 55.3228C57.0034 54.8974 57.0034 54.2078 56.5994 53.7824C56.1955 53.357 55.5406 53.357 55.1367 53.7824L51.9376 57.1513C51.5337 57.5767 51.5337 58.2664 51.9376 58.6917C52.3416 59.1171 52.9965 59.1171 53.4004 58.6917Z" fill="#E5E7EB"/>
<path d="M272.608 192.711L280.417 184.487C280.701 184.188 280.701 183.702 280.417 183.403C280.132 183.104 279.671 183.104 279.387 183.403L271.578 191.627C271.294 191.926 271.294 192.411 271.578 192.711C271.863 193.01 272.324 193.01 272.608 192.711Z" fill="#E5E7EB"/>
<path d="M273.372 186.824L275.625 184.452C275.909 184.152 275.909 183.667 275.625 183.367C275.34 183.068 274.879 183.068 274.595 183.367L272.343 185.739C272.058 186.039 272.058 186.524 272.343 186.824C272.627 187.123 273.088 187.123 273.372 186.824Z" fill="#E5E7EB"/>
<path fill-rule="evenodd" clip-rule="evenodd" d="M267.342 41.2666H268.586C268.887 41.2666 269.129 41.5245 269.129 41.8386V43.1492C269.129 43.4661 268.884 43.7212 268.586 43.7212H267.342C267.043 43.7212 266.798 43.4634 266.798 43.1492V41.8386C266.798 41.7635 266.812 41.689 266.84 41.6195C266.867 41.5501 266.907 41.487 266.957 41.4338C267.008 41.3807 267.068 41.3385 267.134 41.3098C267.2 41.2812 267.27 41.2665 267.342 41.2666ZM271.656 41.2666H272.901C273.199 41.2666 273.444 41.5245 273.444 41.8386V43.1492C273.444 43.4661 273.199 43.7212 272.901 43.7212H271.656C271.358 43.7212 271.113 43.4634 271.113 43.1492V41.8386C271.113 41.5245 271.358 41.2666 271.656 41.2666ZM275.974 41.2666H277.219C277.517 41.2666 277.762 41.5245 277.762 41.8386V43.1492C277.762 43.4661 277.517 43.7212 277.219 43.7212H275.974C275.676 43.7212 275.431 43.4634 275.431 43.1492V41.8386C275.431 41.7635 275.445 41.689 275.472 41.6195C275.499 41.5501 275.539 41.487 275.59 41.4338C275.64 41.3807 275.7 41.3385 275.766 41.3098C275.832 41.2812 275.903 41.2665 275.974 41.2666ZM280.289 41.2666H281.534C281.832 41.2666 282.077 41.5245 282.077 41.8386V43.1492C282.077 43.4661 281.832 43.7212 281.534 43.7212H280.289C280.145 43.7211 280.007 43.6609 279.904 43.5537C279.802 43.4466 279.744 43.3011 279.743 43.1492V41.8386C279.745 41.687 279.803 41.542 279.905 41.435C280.007 41.328 280.145 41.2676 280.289 41.2666ZM284.604 41.2666H285.849C286.15 41.2666 286.395 41.5245 286.395 41.8386V43.1492C286.395 43.4661 286.15 43.7212 285.849 43.7212H284.604C284.306 43.7212 284.061 43.4634 284.061 43.1492V41.8386C284.061 41.5245 284.306 41.2666 284.604 41.2666ZM271.815 46.2218H273.059C273.358 46.2218 273.603 46.4796 273.603 46.7938V48.1071C273.603 48.4213 273.358 48.6791 273.059 48.6791H271.815C271.514 48.6791 271.271 48.4213 271.271 48.1071V46.7966C271.271 46.7212 271.285 46.6465 271.312 46.5767C271.339 46.5069 271.379 46.4435 271.429 46.3901C271.48 46.3366 271.54 46.2943 271.606 46.2654C271.672 46.2365 271.743 46.2217 271.815 46.2218ZM276.13 46.2218H277.374C277.672 46.2218 277.917 46.4796 277.917 46.7938V48.1071C277.917 48.4213 277.672 48.6791 277.374 48.6791H276.13C275.831 48.6791 275.586 48.4213 275.586 48.1071V46.7966C275.586 46.7212 275.6 46.6465 275.627 46.5767C275.654 46.5069 275.694 46.4435 275.744 46.3901C275.795 46.3366 275.855 46.2943 275.921 46.2654C275.987 46.2365 276.058 46.2217 276.13 46.2218ZM280.445 46.2218H281.689C281.99 46.2218 282.235 46.4796 282.235 46.7938V48.1071C282.234 48.2591 282.176 48.4045 282.074 48.5117C281.972 48.6188 281.834 48.679 281.689 48.6791H280.445C280.146 48.6791 279.902 48.4213 279.902 48.1071V46.7966C279.902 46.4796 280.146 46.2218 280.445 46.2218ZM275.974 35.9434H277.219C277.517 35.9434 277.762 36.2012 277.762 36.5154V37.8263C277.762 38.1429 277.517 38.3983 277.219 38.3983H275.974C275.676 38.3983 275.431 38.1405 275.431 37.8263V36.5154C275.431 36.4402 275.445 36.3657 275.472 36.2963C275.499 36.2268 275.539 36.1637 275.59 36.1105C275.64 36.0574 275.7 36.0153 275.766 35.9866C275.832 35.9579 275.903 35.9432 275.974 35.9434ZM280.289 35.9434H281.534C281.832 35.9434 282.077 36.2012 282.077 36.5154V37.8263C282.077 38.1429 281.832 38.3983 281.534 38.3983H280.289C280.145 38.3982 280.007 38.338 279.904 38.2309C279.802 38.1237 279.744 37.9783 279.743 37.8263V36.5154C279.745 36.3637 279.803 36.2187 279.905 36.1118C280.007 36.0048 280.145 35.9443 280.289 35.9434ZM42.5598 195.784H43.8043C44.1052 195.784 44.3474 196.042 44.3474 196.356V197.667C44.3474 197.984 44.1026 198.239 43.8043 198.239H42.5598C42.2614 198.239 42.0166 197.981 42.0166 197.667V196.356C42.0165 196.281 42.0304 196.207 42.0576 196.137C42.0849 196.068 42.1249 196.005 42.1754 195.951C42.2258 195.898 42.2858 195.856 42.3517 195.827C42.4177 195.799 42.4884 195.784 42.5598 195.784ZM46.8745 195.784H48.119C48.4177 195.784 48.6625 196.042 48.6625 196.356V197.667C48.6625 197.984 48.4177 198.239 48.119 198.239H46.8745C46.5762 198.239 46.3313 197.981 46.3313 197.667V196.356C46.3313 196.042 46.5762 195.784 46.8745 195.784ZM51.1922 195.784H52.4371C52.7354 195.784 52.9802 196.042 52.9802 196.356V197.667C52.9802 197.984 52.7354 198.239 52.4371 198.239H51.1922C50.8939 198.239 50.6491 197.981 50.6491 197.667V196.356C50.649 196.281 50.6629 196.207 50.6902 196.137C50.7175 196.068 50.7575 196.005 50.8079 195.951C50.8584 195.898 50.9183 195.856 50.9842 195.828C51.0502 195.799 51.1208 195.784 51.1922 195.784ZM55.5073 195.784H56.7518C57.0501 195.784 57.295 196.042 57.295 196.356V197.667C57.295 197.984 57.0501 198.239 56.7518 198.239H55.5073C55.363 198.239 55.2247 198.178 55.1224 198.071C55.0201 197.964 54.9623 197.819 54.9615 197.667V196.356C54.9631 196.204 55.0212 196.06 55.1233 195.953C55.2254 195.846 55.3633 195.785 55.5073 195.784ZM59.8224 195.784H61.0669C61.3679 195.784 61.6127 196.042 61.6127 196.356V197.667C61.6127 197.984 61.3679 198.239 61.0669 198.239H59.8224C59.5241 198.239 59.2792 197.981 59.2792 197.667V196.356C59.2792 196.042 59.5241 195.784 59.8224 195.784ZM47.0331 200.739H48.2776C48.5759 200.739 48.8207 200.997 48.8207 201.311V202.625C48.8207 202.939 48.5759 203.197 48.2776 203.197H47.0331C46.7321 203.197 46.4895 202.939 46.4895 202.625V201.314C46.4892 201.239 46.503 201.164 46.5301 201.094C46.5573 201.025 46.5973 200.961 46.6478 200.908C46.6983 200.854 46.7584 200.812 46.8245 200.783C46.8906 200.754 46.9615 200.739 47.0331 200.739ZM51.3478 200.739H52.5923C52.8906 200.739 53.1354 200.997 53.1354 201.311V202.625C53.1354 202.939 52.8906 203.197 52.5923 203.197H51.3478C51.0494 203.197 50.8046 202.939 50.8046 202.625V201.314C50.8042 201.239 50.8179 201.164 50.845 201.094C50.8721 201.024 50.9121 200.961 50.9625 200.908C51.013 200.854 51.0731 200.812 51.1392 200.783C51.2053 200.754 51.2762 200.739 51.3478 200.739ZM55.6629 200.739H56.9074C57.2083 200.739 57.4532 200.997 57.4532 201.311V202.625C57.4524 202.777 57.3945 202.922 57.2923 203.029C57.19 203.136 57.0516 203.197 56.9074 203.197H55.6629C55.3645 203.197 55.1197 202.939 55.1197 202.625V201.314C55.1197 200.997 55.3645 200.739 55.6629 200.739ZM51.1926 190.461H52.4371C52.7354 190.461 52.9802 190.719 52.9802 191.033V192.344C52.9802 192.661 52.7354 192.916 52.4371 192.916H51.1926C50.8939 192.916 50.6491 192.658 50.6491 192.344V191.033C50.6489 190.958 50.6629 190.884 50.6901 190.814C50.7174 190.745 50.7574 190.681 50.8079 190.628C50.8584 190.575 50.9184 190.533 50.9844 190.504C51.0504 190.475 51.1212 190.461 51.1926 190.461ZM55.5073 190.461H56.7518C57.0501 190.461 57.295 190.719 57.295 191.033V192.344C57.295 192.661 57.0501 192.916 56.7518 192.916H55.5073C55.363 192.916 55.2247 192.856 55.1224 192.748C55.0201 192.641 54.9623 192.496 54.9615 192.344V191.033C54.963 190.882 55.021 190.737 55.1231 190.629C55.2252 190.522 55.3632 190.462 55.5073 190.461Z" fill="#E5E7EB"/>
<path fill-rule="evenodd" clip-rule="evenodd" d="M68.6324 129.782C59.3513 129.782 51.8267 121.746 51.8267 111.835C51.8267 101.923 59.3513 93.8877 68.6324 93.8877C77.9135 93.8877 85.4381 101.923 85.4381 111.835C85.4381 121.746 77.9135 129.782 68.6324 129.782Z" fill="#0E9F6E"/>
<path d="M75.4028 104.219L68.3034 112.195L64.041 107.41" stroke="white" stroke-width="2" stroke-linecap="round" stroke-linejoin="round"/>
<path d="M61.2104 119.831L68.3099 111.855L72.5722 116.64" stroke="white" stroke-width="2" stroke-linecap="round" stroke-linejoin="round"/>
</svg>
